HIERARCHY
ROOT Pelvis
{
	OFFSET 0.000000 0.000000 0.000000
	CHANNELS 6 Xposition Yposition Zposition Xrotation Yrotation Zrotation
	JOINT LeftUpLeg_virtual
	{
		OFFSET 0.000000 0.000000 0.000000
		CHANNELS 3 Xrotation Yrotation Zrotation
		JOINT LeftUpLeg
		{
			OFFSET 18.735201 -5.666702 -4.541200
			CHANNELS 3 Xrotation Yrotation Zrotation
			JOINT LeftLeg
			{
				OFFSET -0.021200 -31.938179 0.493100
				CHANNELS 3 Xrotation Yrotation Zrotation
				JOINT LeftFoot
				{
					OFFSET 0.021200 -31.938179 -4.336299
					CHANNELS 3 Xrotation Yrotation Zrotation
					JOINT LeftToeBase
					{
						OFFSET 0.943001 -26.722000 15.023500
						CHANNELS 3 Xrotation Yrotation Zrotation
						End Site
						{
							OFFSET 0 0 0
						}
					}
				}
			}
		}
	}
	JOINT RightUpLeg_virtual
	{
		OFFSET 0.000000 0.000000 0.000000
		CHANNELS 3 Xrotation Yrotation Zrotation
		JOINT RightUpLeg
		{
			OFFSET -18.735201 -5.666702 -4.541200
			CHANNELS 3 Xrotation Yrotation Zrotation
			JOINT RightLeg
			{
				OFFSET 0.018946 -31.938133 0.493100
				CHANNELS 3 Xrotation Yrotation Zrotation
				JOINT RightFoot
				{
					OFFSET -0.018946 -31.938126 -4.336299
					CHANNELS 3 Xrotation Yrotation Zrotation
					JOINT RightToeBase
					{
						OFFSET -0.943001 -26.722004 15.023500
						CHANNELS 3 Xrotation Yrotation Zrotation
						End Site
						{
							OFFSET 0 0 0
						}
					}
				}
			}
		}
	}
	JOINT Hips_virtual
	{
		OFFSET 0.000000 0.000000 0.000000
		CHANNELS 3 Xrotation Yrotation Zrotation
		JOINT Hips
		{
			OFFSET -0.000000 -0.000000 -0.000000
			CHANNELS 3 Xrotation Yrotation Zrotation
			JOINT Spine
			{
				OFFSET 0.000000 10.199997 -0.299500
				CHANNELS 3 Xrotation Yrotation Zrotation
				JOINT Spine1
				{
					OFFSET 0.000000 11.900002 -1.516600
					CHANNELS 3 Xrotation Yrotation Zrotation
					JOINT Spine2
					{
						OFFSET 0.000000 13.600006 -2.842500
						CHANNELS 3 Xrotation Yrotation Zrotation
						JOINT Neck_virtual
						{
							OFFSET 0.000000 0.000000 0.000000
							CHANNELS 3 Xrotation Yrotation Zrotation
							JOINT Neck
							{
								OFFSET 0.000000 9.624100 -2.890100
								CHANNELS 3 Xrotation Yrotation Zrotation
								JOINT Head
								{
									OFFSET 0.000000 14.068802 -1.351900
									CHANNELS 3 Xrotation Yrotation Zrotation
									End Site
									{
										OFFSET 0 0 0
									}
								}
							}
						}
						JOINT LeftShoulder_virtual
						{
							OFFSET 0.000000 0.000000 0.000000
							CHANNELS 3 Xrotation Yrotation Zrotation
							JOINT LeftShoulder
							{
								OFFSET 15.263000 10.923401 -0.547700
								CHANNELS 3 Xrotation Yrotation Zrotation
								JOINT LeftArm
								{
									OFFSET 25.438599 -2.830597 -13.032500
									CHANNELS 3 Xrotation Yrotation Zrotation
									JOINT LeftForeArm
									{
										OFFSET 29.960503 0.000000 0.000000
										CHANNELS 3 Xrotation Yrotation Zrotation
										JOINT LeftHand
										{
											OFFSET 27.849251 0.000000 0.000000
											CHANNELS 3 Xrotation Yrotation Zrotation
											End Site
											{
												OFFSET 0 0 0
											}
										}
									}
								}
							}
						}
						JOINT RightShoulder_virtual
						{
							OFFSET 0.000000 0.000000 0.000000
							CHANNELS 3 Xrotation Yrotation Zrotation
							JOINT RightShoulder
							{
								OFFSET -15.263000 10.923401 -0.547700
								CHANNELS 3 Xrotation Yrotation Zrotation
								JOINT RightArm
								{
									OFFSET -25.438599 -2.830597 -13.032500
									CHANNELS 3 Xrotation Yrotation Zrotation
									JOINT RightForeArm
									{
										OFFSET -29.960503 0.000000 0.000000
										CHANNELS 3 Xrotation Yrotation Zrotation
										JOINT RightHand
										{
											OFFSET -27.849251 0.000000 0.000000
											CHANNELS 3 Xrotation Yrotation Zrotation
											End Site
											{
												OFFSET 0 0 0
											}
										}
									}
								}
							}
						}
					}
				}
			}
		}
	}
}
MOTION
Frames: 13
Frame Time: 0.03333333
-10.662020 116.828232 23.516224 0.000000 0.000000 0.000000 27.787697 -54.650440 36.911073 -88.167005 -16.543572 23.442930 61.073817 2.146162 -11.292972 14.840464 4.857720 -9.916119 0.000000 0.000000 0.000000 28.267692 -53.784017 36.470915 -128.398486 -3.665155 -4.248197 110.445846 16.383312 29.672182 26.088433 -8.009266 53.502258 0.000000 0.000000 0.000000 28.011772 -53.386773 37.303037 -0.695346 -0.173070 -0.054013 28.374745 -4.165114 -14.159517 9.605598 -1.654899 -3.063580 0.000000 0.000000 0.000000 8.444223 -0.550822 -2.866913 -1.663442 8.951068 -1.775753 0.000000 0.000000 0.000000 8.234672 0.262995 -3.522823 3.158224 -5.909095 0.208142 -43.665365 11.171809 -22.569494 50.606996 -35.703711 47.730257 0.000000 0.000000 0.000000 5.783037 -0.035976 -2.478748 24.903203 17.795740 -24.579122 -59.937171 -1.176570 -4.523861 13.059876 62.405212 -8.915412 0.000000 0.000000 0.000000 
-10.617529 116.772766 23.547445 0.000000 0.000000 0.000000 27.884013 -54.738560 37.031752 -88.209824 -16.588610 23.416697 61.040642 2.144011 -11.363618 14.989151 4.831339 -10.092746 0.000000 0.000000 0.000000 28.377817 -53.878001 36.613403 -128.115730 -3.561705 -4.233373 110.375358 16.372524 29.536473 25.631986 -7.957189 53.370272 0.000000 0.000000 0.000000 28.226727 -53.556237 37.521603 -0.694447 -0.172739 -0.051963 28.511242 -4.081331 -14.181372 9.637538 -1.673736 -3.019181 0.000000 0.000000 0.000000 8.472104 -0.565145 -2.805315 -1.597430 8.907783 -1.807731 0.000000 0.000000 0.000000 8.212720 0.239969 -3.472090 3.065732 -5.829141 -0.780323 -42.894322 11.564848 -23.065839 50.172814 -35.105970 47.372082 0.000000 0.000000 0.000000 5.830763 -0.042761 -2.435120 24.710639 18.514319 -23.886278 -59.180884 -1.818736 -4.869735 13.893948 62.262761 -10.144496 0.000000 0.000000 0.000000 
-10.560570 116.693512 23.548992 0.000000 0.000000 0.000000 27.921503 -54.783940 37.114302 -88.175577 -16.616069 23.348327 60.870871 2.124888 -11.447616 14.952517 4.766543 -10.267193 0.000000 0.000000 0.000000 28.411249 -53.949769 36.689905 -127.821526 -3.453088 -4.234231 110.314419 16.347849 29.404893 25.193464 -7.880745 53.240368 0.000000 0.000000 0.000000 28.377329 -53.699371 37.690862 -0.692920 -0.175041 -0.051451 28.622471 -4.036930 -14.184158 9.638376 -1.702185 -2.951440 0.000000 0.000000 0.000000 8.478605 -0.591691 -2.722464 -1.525961 8.850572 -1.826121 0.000000 0.000000 0.000000 8.174896 0.204628 -3.409133 2.990729 -5.753059 -1.600624 -42.228109 12.256441 -23.680857 49.703819 -34.466081 47.037460 0.000000 0.000000 0.000000 5.840505 -0.059261 -2.367411 24.535190 19.128541 -23.362425 -58.642297 -2.664123 -4.981627 14.644378 61.943751 -11.351734 0.000000 0.000000 0.000000 
-10.503561 116.593292 23.519686 0.000000 0.000000 0.000000 27.921747 -54.786197 37.193778 -88.071082 -16.604366 23.268216 60.594153 2.095787 -11.539588 14.791871 4.701947 -10.411226 0.000000 0.000000 0.000000 28.378845 -53.986877 36.729424 -127.551078 -3.327840 -4.264671 110.277434 16.310415 29.269932 24.835565 -7.763284 53.110690 0.000000 0.000000 0.000000 28.471799 -53.805532 37.839378 -0.691152 -0.180184 -0.052560 28.689308 -4.035900 -14.187689 9.603204 -1.740520 -2.873768 0.000000 0.000000 0.000000 8.461986 -0.627998 -2.632362 -1.457990 8.785157 -1.828358 0.000000 0.000000 0.000000 8.121362 0.160274 -3.337819 2.923192 -5.690045 -2.262738 -41.639388 13.221641 -24.365223 49.304745 -33.872677 46.780744 0.000000 0.000000 0.000000 5.816064 -0.086777 -2.292328 24.379626 19.691941 -22.920723 -58.272900 -3.643278 -4.981073 15.204831 61.520333 -12.381817 0.000000 0.000000 0.000000 
-10.445219 116.478134 23.476032 0.000000 0.000000 0.000000 27.910544 -54.767780 37.305199 -87.931309 -16.532329 23.184037 60.298959 2.065268 -11.642199 14.625122 4.681660 -10.505148 0.000000 0.000000 0.000000 28.316801 -53.987379 36.785678 -127.308620 -3.188819 -4.340740 110.266540 16.251609 29.146244 24.499624 -7.705463 52.959272 0.000000 0.000000 0.000000 28.520775 -53.865973 37.999074 -0.689249 -0.185941 -0.053913 28.706708 -4.076859 -14.213150 9.530888 -1.786799 -2.802867 0.000000 0.000000 0.000000 8.415210 -0.672441 -2.546637 -1.401354 8.715461 -1.819053 0.000000 0.000000 0.000000 8.048738 0.110785 -3.265245 2.849399 -5.615146 -2.815253 -41.071051 14.387245 -24.977332 49.086439 -33.442037 46.665686 0.000000 0.000000 0.000000 5.767780 -0.125106 -2.227538 24.209199 20.247283 -22.432993 -57.919943 -4.720309 -5.116993 15.510125 61.147767 -13.077476 0.000000 0.000000 0.000000 
-10.384912 116.352135 23.420826 0.000000 0.000000 0.000000 27.907333 -54.751432 37.471791 -87.780908 -16.383057 23.106527 60.039432 2.034410 -11.754428 14.488836 4.716977 -10.551548 0.000000 0.000000 0.000000 28.274164 -53.978090 36.914741 -127.094002 -3.029639 -4.462680 110.313702 16.169476 29.035459 24.057653 -7.822147 52.767651 0.000000 0.000000 0.000000 28.539454 -53.888485 38.184596 -0.689378 -0.189745 -0.054770 28.682372 -4.152165 -14.265618 9.434292 -1.842695 -2.742431 0.000000 0.000000 0.000000 8.342865 -0.724846 -2.474399 -1.356693 8.645673 -1.804381 0.000000 0.000000 0.000000 7.951749 0.057818 -3.194744 2.762878 -5.480881 -3.286248 -40.506659 15.697730 -25.404974 49.054494 -33.208014 46.687263 0.000000 0.000000 0.000000 5.713958 -0.174625 -2.180272 24.009659 20.792347 -21.850760 -57.475318 -5.848385 -5.537882 15.532690 60.917037 -13.365709 0.000000 0.000000 0.000000 
-10.331457 116.225372 23.366169 0.000000 0.000000 0.000000 27.921967 -54.758323 37.695476 -87.617475 -16.147616 23.050345 59.818544 2.003255 -11.877118 14.378549 4.791964 -10.585026 0.000000 0.000000 0.000000 28.265097 -53.974539 37.126197 -126.902319 -2.857421 -4.626981 110.433620 16.085481 28.938169 23.469850 -8.136662 52.547763 0.000000 0.000000 0.000000 28.529567 -53.888956 38.393945 -0.690793 -0.190562 -0.055543 28.619990 -4.244852 -14.329923 9.324018 -1.907055 -2.693529 0.000000 0.000000 0.000000 8.263605 -0.784007 -2.419240 -1.321000 8.576925 -1.789805 0.000000 0.000000 0.000000 7.839193 0.000331 -3.130885 2.666338 -5.243428 -3.736861 -39.950791 17.087986 -25.604195 49.127864 -33.153018 46.781315 0.000000 0.000000 0.000000 5.666167 -0.232338 -2.149796 23.761863 21.267532 -21.207036 -57.019840 -6.935042 -6.087913 15.224867 60.819249 -13.205149 0.000000 0.000000 0.000000 
-10.286963 116.105446 23.339626 0.000000 0.000000 0.000000 27.951994 -54.797255 37.948015 -87.420821 -15.829699 23.025232 59.615223 1.977013 -12.005924 14.261112 4.890141 -10.639550 0.000000 0.000000 0.000000 28.305443 -53.992157 37.407040 -126.743504 -2.683870 -4.829533 110.589703 16.021493 28.865401 22.818684 -8.562574 52.344616 0.000000 0.000000 0.000000 28.488296 -53.877847 38.596371 -0.693606 -0.188478 -0.055429 28.527151 -4.343327 -14.378163 9.213078 -1.978157 -2.651345 0.000000 0.000000 0.000000 8.182140 -0.851293 -2.381506 -1.288697 8.511228 -1.780817 0.000000 0.000000 0.000000 7.722026 -0.063415 -3.079114 2.573486 -4.864281 -4.178346 -39.404024 18.506319 -25.618385 49.164419 -33.136270 46.839446 0.000000 0.000000 0.000000 5.627595 -0.293868 -2.128223 23.466884 21.614711 -20.560995 -56.556162 -7.974079 -6.598273 14.640852 60.774620 -12.700574 0.000000 0.000000 0.000000 
-10.269300 116.001953 23.333965 0.000000 0.000000 0.000000 27.982650 -54.854007 38.188995 -87.166820 -15.456541 23.051533 59.370292 1.979837 -12.125277 14.064088 5.018734 -10.709001 0.000000 0.000000 0.000000 28.370750 -54.035232 37.697433 -126.641515 -2.520835 -5.050217 110.735876 16.006982 28.814184 22.301802 -8.921544 52.193656 0.000000 0.000000 0.000000 28.430840 -53.872202 38.770852 -0.697099 -0.186201 -0.056183 28.399763 -4.414525 -14.389352 9.111490 -2.051224 -2.611557 0.000000 0.000000 0.000000 8.114255 -0.924165 -2.352024 -1.256887 8.448375 -1.776910 0.000000 0.000000 0.000000 7.613760 -0.130560 -3.044512 2.504757 -4.332572 -4.606627 -38.971868 19.940085 -25.524405 49.032945 -33.051787 46.779614 0.000000 0.000000 0.000000 5.587016 -0.359130 -2.106754 23.169576 21.769075 -20.001294 -56.144165 -8.998929 -6.979283 13.854334 60.746275 -12.003926 0.000000 0.000000 0.000000 
-10.286795 115.920151 23.361366 0.000000 0.000000 0.000000 27.999701 -54.910903 38.379615 -86.846333 -15.074410 23.136706 59.063180 2.036437 -12.213230 13.747040 5.214148 -10.756709 0.000000 0.000000 0.000000 28.439777 -54.098732 37.954484 -126.597870 -2.391468 -5.233995 110.838350 16.050948 28.773746 22.081197 -9.102392 52.106441 0.000000 0.000000 0.000000 28.375702 -53.886422 38.906328 -0.698159 -0.184464 -0.057965 28.249975 -4.437968 -14.372014 9.016612 -2.110692 -2.579484 0.000000 0.000000 0.000000 8.072297 -0.992678 -2.325952 -1.226032 8.386875 -1.776361 0.000000 0.000000 0.000000 7.522303 -0.192479 -3.033557 2.465454 -3.660455 -4.989405 -38.716135 21.333751 -25.362658 48.747395 -32.919876 46.657357 0.000000 0.000000 0.000000 5.522858 -0.417223 -2.083494 22.894801 21.701355 -19.604822 -55.881647 -10.138139 -7.232367 12.980396 60.763050 -11.267982 0.000000 0.000000 0.000000 
-10.334385 115.863899 23.419632 0.000000 0.000000 0.000000 28.009547 -54.975667 38.516806 -86.464355 -14.735314 23.251608 58.716411 2.149375 -12.251263 13.263467 5.492086 -10.746988 0.000000 0.000000 0.000000 28.506725 -54.170807 38.151804 -126.592966 -2.314491 -5.337283 110.863717 16.127866 28.751224 22.130499 -9.141733 52.053664 0.000000 0.000000 0.000000 28.349284 -53.929104 39.009010 -0.697044 -0.184637 -0.060963 28.105880 -4.404932 -14.357430 8.936360 -2.146792 -2.563932 0.000000 0.000000 0.000000 8.039314 -1.043075 -2.307382 -1.201817 8.325814 -1.779287 0.000000 0.000000 0.000000 7.445208 -0.237335 -3.050242 2.447667 -2.899427 -5.255194 -38.603095 22.659941 -25.072146 48.489910 -32.842770 46.640220 0.000000 0.000000 0.000000 5.445452 -0.450518 -2.067172 22.643484 21.450921 -19.360084 -55.764536 -11.488545 -7.515202 12.152947 60.990065 -10.670110 0.000000 0.000000 0.000000 
-10.403664 115.837166 23.493099 0.000000 0.000000 0.000000 28.045619 -55.068383 38.629948 -86.049838 -14.470830 23.364450 58.362491 2.287108 -12.238835 12.631142 5.801840 -10.701876 0.000000 0.000000 0.000000 28.569705 -54.252138 38.275960 -126.619604 -2.301888 -5.361482 110.837352 16.215045 28.750623 22.289923 -9.161381 51.987339 0.000000 0.000000 0.000000 28.379081 -54.005097 39.108027 -0.693245 -0.187282 -0.064266 27.997659 -4.321475 -14.363451 8.866062 -2.149621 -2.569812 0.000000 0.000000 0.000000 7.999018 -1.059010 -2.302464 -1.191705 8.266827 -1.785540 0.000000 0.000000 0.000000 7.375237 -0.252335 -3.090853 2.429925 -2.119302 -5.362856 -38.532266 23.945412 -24.556354 48.573153 -33.052180 46.966823 0.000000 0.000000 0.000000 5.381623 -0.451753 -2.068850 22.384547 21.055076 -19.212018 -55.827255 -13.153369 -7.993561 11.453373 61.701019 -10.253148 0.000000 0.000000 0.000000 
-10.488018 115.835602 23.583818 0.000000 0.000000 0.000000 28.112157 -55.178161 38.721234 -85.634986 -14.287863 23.462072 58.048384 2.410729 -12.197978 11.959780 6.077528 -10.667617 0.000000 0.000000 0.000000 28.639620 -54.343871 38.347670 -126.637964 -2.360538 -5.314835 110.809772 16.298206 28.768572 22.402525 -9.260663 51.899660 0.000000 0.000000 0.000000 28.470219 -54.103981 39.217508 -0.688422 -0.189860 -0.065521 27.945379 -4.198936 -14.403522 8.806141 -2.117827 -2.596977 0.000000 0.000000 0.000000 7.963299 -1.036544 -2.320572 -1.196434 8.213049 -1.794887 0.000000 0.000000 0.000000 7.302261 -0.230350 -3.141272 2.401108 -1.340740 -5.266597 -38.443959 25.222599 -23.741746 49.163029 -33.703729 47.777675 0.000000 0.000000 0.000000 5.346254 -0.423420 -2.097303 22.101481 20.512656 -19.134558 -56.058139 -15.183043 -8.824652 10.946974 63.019956 -10.021765 0.000000 0.000000 0.000000 
